<?xml version="1.0" standalone="no"?>
<!DOCTYPE svg PUBLIC "-//W3C//DTD SVG 20010904//EN"
 "http://www.w3.org/TR/2001/REC-SVG-20010904/DTD/svg10.dtd">
<svg version="1.0" xmlns="http://www.w3.org/2000/svg"
 width="1024.000000pt" height="1024.000000pt" viewBox="0 0 1024.000000 1024.000000"
 preserveAspectRatio="xMidYMid meet">

<g transform="translate(0.000000,1024.000000) scale(0.100000,-0.100000)"
fill="#000000" stroke="none">
<path d="M0 5120 l0 -5120 5120 0 5120 0 0 5120 0 5120 -5120 0 -5120 0 0
-5120z m5238 2836 c65 -34 46 -1 659 -1151 371 -697 493 -927 572 -1077 39
-75 77 -138 85 -141 7 -3 53 -1 102 5 121 14 320 4 419 -21 305 -76 558 -293
686 -591 168 -388 113 -884 -136 -1229 -109 -151 -366 -375 -700 -611 -400
-282 -1238 -897 -1390 -1020 -186 -151 -398 -310 -413 -310 -9 1 -129 89 -267
196 -414 324 -784 600 -1240 926 -699 499 -861 634 -1009 841 -252 353 -296
871 -106 1247 211 417 628 632 1105 570 51 -6 75 -6 88 3 16 11 78 123 402
737 56 107 138 263 182 345 197 370 439 826 533 1005 144 275 161 290 308 290
61 0 102 -5 120 -14z"/>
<path d="M4992 6973 c-66 -131 -152 -299 -192 -373 -40 -74 -133 -252 -207
-395 -74 -143 -194 -369 -265 -503 -72 -133 -129 -244 -127 -246 2 -2 54 -29
115 -60 282 -143 506 -335 718 -614 42 -56 81 -102 86 -102 6 0 31 28 58 62
175 229 286 344 436 457 124 93 186 132 316 196 60 31 110 58 110 62 0 3 -58
115 -129 247 -70 133 -179 338 -241 456 -62 118 -164 310 -225 425 -62 116
-158 301 -213 412 -56 111 -106 204 -111 208 -6 3 -63 -100 -129 -232z"/>
<path d="M3267 5095 c-156 -55 -259 -147 -332 -300 -56 -118 -69 -177 -69
-310 1 -130 22 -217 84 -348 40 -84 55 -105 67 -94 3 3 17 68 33 144 43 216
60 255 281 669 71 132 129 246 129 252 0 22 -119 14 -193 -13z"/>
<path d="M6780 5116 c0 -3 39 -76 86 -163 151 -276 260 -496 287 -578 15 -44
36 -127 47 -185 29 -158 28 -154 46 -139 23 19 61 99 95 200 76 228 33 497
-109 675 -83 105 -264 194 -391 194 -34 0 -61 -2 -61 -4z"/>
<path d="M3958 4978 c-18 -14 -205 -354 -338 -613 -94 -183 -115 -258 -115
-410 0 -186 60 -332 189 -460 39 -39 186 -154 326 -255 140 -101 440 -322 665
-490 226 -169 416 -310 422 -314 19 -10 40 4 243 157 176 133 625 464 905 667
306 221 388 311 451 495 38 109 40 279 6 400 -23 81 -150 337 -320 645 -108
197 -105 194 -163 187 -134 -16 -370 -180 -554 -385 -91 -102 -320 -402 -445
-585 -100 -147 -114 -149 -193 -32 -46 68 -189 265 -314 432 -47 62 -130 161
-186 219 -215 225 -508 398 -579 342z"/>
</g>
</svg>
